<?xml version="1.0" encoding="UTF-8"?>
<svg id="Capa_1" xmlns="http://www.w3.org/2000/svg" version="1.1" viewBox="0 0 1920 1080">
  <!-- Generator: Adobe Illustrator 29.3.1, SVG Export Plug-In . SVG Version: 2.1.0 Build 151)  -->
  <defs>
    <style>
      .st0 {
        fill: #0101fe;
      }
    </style>
  </defs>
  <path class="st0" d="M877,337v74h63v67h-61v86.5c0,9.7,13.9,22.5,23.5,22.5h38.5v76h-75.5c-35.2,0-73.5-39.5-73.5-74.5v-110.5h-42c24.4,61.2,9.9,137.2-48.1,173.4-32.1,20-78.3,26.1-114.2,13.3-6.9-2.4-12.9-6.4-19.8-8.7v98h-86v-343h58.5l11,19c51.1-42.2,134.8-33.6,178,16,5.7,6.6,9.9,14.4,15.5,21,.3-3.5-.9-7.5,1-10.6l112.6-119.4h18.5ZM608.8,480.3c-63.9,7.7-62.9,107.7,1.7,113.7,84.8,7.9,84-124-1.7-113.7Z"/>
  <path class="st0" d="M211.5,664c-2.6-.4-9.1-3.8-11.4-5.6-22.6-18,3.2-60.6,14.9-78.9,3.5-5.5,12.8-20.2,17-24s6.4-2.8,9.3-3.7c14.2-4.9,29.6-8.7,44-12.6,14.2,8.8,26.3,21.8,39.8,31.3s10.1,3,10.9-6.9-1.9-43.3,1.2-48.8l43.7-29.3c3.7-2.1,4.7-7.3.3-9.2-14.8-6.3-33.3-9.7-47.6-16.4s-4.1-1.9-5.5-5.5c-5.7-14.6-7.8-33.7-13.2-48.8-1-2.7-3.4-3.7-6.1-3s-29.1,39.5-34.6,44.5c-7.3.1-14.6.4-21.9.2s-23-2.7-32-2.1c-3.8.3-5.9,1.1-5.5,5.5s20.3,29.8,24.2,35.9,6.6,8.9,6.8,11.3l-19,51c-14.1,9-41.7,25.1-58.5,20.4-14.2-4-13-18.8-9.6-30.5l86.1-220.3,93.4-.2,139.4,346.1H211.5Z"/>
  <path class="st0" d="M1516,662c-1.9-4.5-3.4-10.7-5.7-14.7s.1-1.6-1.8-1.3-11.5,7.9-14.5,9.6c-41.4,23.2-96,20.3-135.5-5.5-73.9-48.1-76.7-171.8-4.8-222.8,39.2-27.8,96.6-33,139-9.4,3.1,1.7,16.3,11.5,17.8,11.2s6.5-16.3,9-18h64.5v251h-68ZM1435.8,480.3c-66.4,7.9-60.9,120.4,15.6,113.6,71.7-6.4,66.2-123.4-15.6-113.6Z"/>
  <path class="st0" d="M1137.5,411l48,147,47-147h92.5l-100.5,251-3,1-76.6-.5c-30.4-74.4-61.6-148.8-91.4-223.6-3.7-9.2-7.8-18.4-10.5-28h94.5Z"/>
  <rect class="st0" x="1612" y="320" width="87" height="343"/>
  <rect class="st0" x="1728" y="320" width="87" height="343"/>
  <rect class="st0" x="955" y="411" width="87" height="252"/>
  <rect class="st0" x="956" y="306" width="85" height="73"/>
</svg>